<svg width="64" height="64" viewBox="0 0 64 64" fill="none" xmlns="http://www.w3.org/2000/svg">
<g id="read">
<rect width="32" height="32" transform="scale(2)" fill="white"/>
<g id="read_2">
<path id="Combined Shape" fill-rule="evenodd" clip-rule="evenodd" d="M33.4722 38.4225L33.4712 23.5284L53.1765 18.243C53.9761 18.0286 54.4506 17.206 54.2363 16.4058C54.022 15.6056 53.2001 15.1308 52.4005 15.3452L33.471 20.4225L33.4704 12.7472C33.4704 12.0675 33.9257 11.4737 34.5805 11.2982L57.8909 5.05516C58.61 4.86219 59.0022 5.14955 59.0022 5.80216V49.9361C59.0022 50.9048 58.1227 52.021 57.1152 52.2913L32.3424 58.9272C32.0079 59.0211 31.9241 59.0205 31.6291 58.9352L6.88502 52.2913C5.87734 52.021 4.99775 50.9048 4.99775 49.9361V5.80216C4.99775 5.14955 5.38999 4.86219 6.10846 5.05497L25.4735 10.257C26.273 10.4717 27.0951 9.99722 27.3097 9.1971C27.5243 8.39698 27.0502 7.57424 26.2507 7.35948L6.8852 2.15737C4.29388 1.46206 2 3.14258 2 5.80216V49.9361C2 52.2792 3.80626 54.5713 6.10846 55.189L30.8247 61.8251C31.6242 62.0565 32.2767 62.0617 33.1351 61.8204L57.8909 55.1891C60.1937 54.5713 62 52.2792 62 49.9361V5.80216C62 3.14258 59.7061 1.46206 57.1152 2.15726L33.8054 8.40021C31.8394 8.92698 30.4726 10.7097 30.4726 12.7473L30.4733 21.2266L28.5204 21.7504C27.7208 21.9648 27.2463 22.7874 27.4606 23.5876C27.6749 24.3878 28.4969 24.8626 29.2965 24.6482L30.4735 24.3324L30.4746 39.2266L28.5204 39.7507C27.7208 39.9652 27.2463 40.7877 27.4606 41.5879C27.6749 42.3881 28.4969 42.863 29.2965 42.6485L30.4748 42.3325L30.4756 54.3793C30.4757 55.2077 31.1468 55.8792 31.9746 55.8792C32.8024 55.8791 33.4735 55.2075 33.4734 54.379L33.4725 41.5284L53.1765 36.2434C53.9761 36.0289 54.4506 35.2064 54.2363 34.4062C54.022 33.606 53.2001 33.1311 52.4005 33.3456L33.4722 38.4225ZM38.4553 31.1295L53.2941 27.2444C54.095 27.0347 54.5744 26.215 54.3648 25.4136C54.1553 24.6121 53.3363 24.1323 52.5354 24.342L37.6965 28.2271C36.8957 28.4368 36.4163 29.2565 36.6258 30.0579C36.8353 30.8594 37.6544 31.3392 38.4553 31.1295ZM42.7299 48.0455L38.3891 49.2095C37.5896 49.424 36.7677 48.9491 36.5534 48.1489C36.3391 47.3487 36.8137 46.5261 37.6133 46.3117L41.954 45.1477C42.7536 44.9333 43.5755 45.4081 43.7897 46.2084C44.004 47.0086 43.5295 47.8311 42.7299 48.0455Z" fill="#F68632"/>
</g>
</g>
</svg>
