<svg width="64" height="64" viewBox="0 0 64 64" fill="none" xmlns="http://www.w3.org/2000/svg">
<g id="repeat">
<rect width="32" height="32" transform="scale(2)" fill="white"/>
<g id="repeat_2">
<path id="Combined Shape" fill-rule="evenodd" clip-rule="evenodd" d="M40.2968 19.1866C42.9282 17.3917 42.9282 13.5119 40.2968 11.7169L27.2177 2.79459C24.2157 0.74652 20.1498 2.89504 20.1498 6.52944V14.3751C10.6491 15.6875 4.5746 20.132 2.62672 26.7C0.551723 33.6967 3.75592 41.9063 10.3641 46.9466C11.0259 47.4514 11.9717 47.3241 12.4765 46.6623C12.9813 46.0005 12.854 45.0547 12.1921 44.5499C6.52997 40.2311 3.81833 33.2835 5.51662 27.5571C7.07199 22.3125 12.0164 18.6211 20.1498 17.4136V24.3741C20.1498 28.0062 24.2162 30.1567 27.2177 28.1089L40.2968 19.1866ZM23.1641 6.52942V14.0723C24.1921 14.0054 25.2541 13.9715 26.3496 13.9715C27.182 13.9715 27.8568 14.6463 27.8568 15.4786C27.8568 16.311 27.182 16.9858 26.3496 16.9858C25.2462 16.9858 24.1843 17.0214 23.1641 17.0912V24.3741C23.1641 25.5847 24.5189 26.3012 25.519 25.6189L38.5981 16.6965C39.4753 16.0981 39.4753 14.8054 38.5981 14.207L25.5189 5.28461C24.5178 4.60164 23.1641 5.317 23.1641 6.52942ZM24.1788 44.8135C21.5474 46.6085 21.5474 50.4883 24.1788 52.2832L37.2579 61.2056C40.2598 63.2536 44.3287 61.1052 44.3287 57.4707V49.6243C53.8274 48.3113 59.9006 43.8671 61.8482 37.2999C63.9232 30.3032 60.719 22.0936 54.1108 17.0533C53.449 16.5485 52.5033 16.6758 51.9984 17.3376C51.4936 17.9994 51.6209 18.9452 52.2828 19.45C57.9449 23.7688 60.6566 30.7164 58.9583 36.4428C57.4032 41.6866 52.46 45.3777 44.3287 46.5858V39.6261C44.3287 35.9916 40.2598 33.8432 37.2578 35.8912L24.1788 44.8135ZM41.3144 46.9084V39.6257C41.3144 38.4138 39.9581 37.6977 38.9566 38.3809L25.8775 47.3033C25.0003 47.9017 25.0003 49.1944 25.8775 49.7928L38.9566 58.7152C39.9581 59.3984 41.3144 58.6823 41.3144 57.4704V49.9274C40.2853 49.9944 39.2221 50.0284 38.1253 50.0284C37.2929 50.0284 36.6181 49.3537 36.6181 48.5213C36.6181 47.6889 37.2929 47.0141 38.1253 47.0141C39.23 47.0141 40.2931 46.9784 41.3144 46.9084Z" fill="#F68632"/>
</g>
</g>
</svg>
